<mxfile host="drawio-plugin" modified="2024-10-10T04:08:38.438Z" agent="5.0 (Macintosh; Intel Mac OS X 10_15_7) AppleWebKit/537.36 (KHTML, like Gecko) Chrome/122.0.0.0 Safari/537.36" version="20.5.3" etag="FcvoqmVvGqOe9uulEFZI" type="embed"><diagram id="HiIbUT5G1S5JUsZJSKeE" name="Page-1"><mxGraphModel dx="1494" dy="693" grid="1" gridSize="10" guides="1" tooltips="1" connect="1" arrows="1" fold="1" page="1" pageScale="1" pageWidth="850" pageHeight="1100" math="0" shadow="0"><root><mxCell id="0"/><mxCell id="1" parent="0"/><mxCell id="21" style="edgeStyle=orthogonalEdgeStyle;rounded=0;orthogonalLoop=1;jettySize=auto;html=1;entryX=0.5;entryY=0;entryDx=0;entryDy=0;fontSize=11;" edge="1" parent="1" source="4" target="11"><mxGeometry relative="1" as="geometry"/></mxCell><mxCell id="4" value="Tracer&amp;nbsp;" style="rounded=0;whiteSpace=wrap;html=1;" vertex="1" parent="1"><mxGeometry x="40" y="222" width="110" height="50" as="geometry"/></mxCell><mxCell id="7" style="edgeStyle=orthogonalEdgeStyle;rounded=0;orthogonalLoop=1;jettySize=auto;html=1;entryX=0.5;entryY=0;entryDx=0;entryDy=0;" edge="1" parent="1" source="5" target="4"><mxGeometry relative="1" as="geometry"/></mxCell><mxCell id="8" style="edgeStyle=orthogonalEdgeStyle;rounded=0;orthogonalLoop=1;jettySize=auto;html=1;exitX=0.5;exitY=1;exitDx=0;exitDy=0;entryX=0.5;entryY=0;entryDx=0;entryDy=0;" edge="1" parent="1" source="5" target="6"><mxGeometry relative="1" as="geometry"/></mxCell><mxCell id="9" value="&lt;font style=&quot;font-size: 11px;&quot;&gt;create&lt;/font&gt;" style="edgeLabel;html=1;align=center;verticalAlign=middle;resizable=0;points=[];" vertex="1" connectable="0" parent="8"><mxGeometry x="-0.74" y="1" relative="1" as="geometry"><mxPoint as="offset"/></mxGeometry></mxCell><mxCell id="24" style="edgeStyle=orthogonalEdgeStyle;rounded=0;orthogonalLoop=1;jettySize=auto;html=1;fontSize=11;" edge="1" parent="1" source="5" target="23"><mxGeometry relative="1" as="geometry"/></mxCell><mxCell id="5" value="Provider" style="rounded=0;whiteSpace=wrap;html=1;" vertex="1" parent="1"><mxGeometry x="150" y="50" width="110" height="50" as="geometry"/></mxCell><mxCell id="22" style="edgeStyle=orthogonalEdgeStyle;rounded=0;orthogonalLoop=1;jettySize=auto;html=1;fontSize=11;" edge="1" parent="1" source="6" target="16"><mxGeometry relative="1" as="geometry"/></mxCell><mxCell id="6" value="Tracer A" style="rounded=0;whiteSpace=wrap;html=1;" vertex="1" parent="1"><mxGeometry x="250" y="222" width="110" height="50" as="geometry"/></mxCell><mxCell id="11" value="span" style="rounded=1;whiteSpace=wrap;html=1;fontSize=11;" vertex="1" parent="1"><mxGeometry x="60" y="340" width="70" height="30" as="geometry"/></mxCell><mxCell id="12" value="span" style="rounded=1;whiteSpace=wrap;html=1;fontSize=11;" vertex="1" parent="1"><mxGeometry x="70" y="350" width="70" height="30" as="geometry"/></mxCell><mxCell id="13" value="span" style="rounded=1;whiteSpace=wrap;html=1;fontSize=11;" vertex="1" parent="1"><mxGeometry x="80" y="360" width="70" height="30" as="geometry"/></mxCell><mxCell id="14" value="span" style="rounded=1;whiteSpace=wrap;html=1;fontSize=11;" vertex="1" parent="1"><mxGeometry x="90" y="370" width="70" height="30" as="geometry"/></mxCell><mxCell id="15" value="span" style="rounded=1;whiteSpace=wrap;html=1;fontSize=11;" vertex="1" parent="1"><mxGeometry x="100" y="380" width="70" height="30" as="geometry"/></mxCell><mxCell id="16" value="span" style="rounded=1;whiteSpace=wrap;html=1;fontSize=11;" vertex="1" parent="1"><mxGeometry x="270" y="350" width="70" height="30" as="geometry"/></mxCell><mxCell id="17" value="span" style="rounded=1;whiteSpace=wrap;html=1;fontSize=11;" vertex="1" parent="1"><mxGeometry x="280" y="360" width="70" height="30" as="geometry"/></mxCell><mxCell id="18" value="span" style="rounded=1;whiteSpace=wrap;html=1;fontSize=11;" vertex="1" parent="1"><mxGeometry x="290" y="370" width="70" height="30" as="geometry"/></mxCell><mxCell id="19" value="span" style="rounded=1;whiteSpace=wrap;html=1;fontSize=11;" vertex="1" parent="1"><mxGeometry x="300" y="380" width="70" height="30" as="geometry"/></mxCell><mxCell id="20" value="span" style="rounded=1;whiteSpace=wrap;html=1;fontSize=11;" vertex="1" parent="1"><mxGeometry x="310" y="390" width="70" height="30" as="geometry"/></mxCell><mxCell id="23" value="exporter" style="ellipse;shape=cloud;whiteSpace=wrap;html=1;fontSize=11;" vertex="1" parent="1"><mxGeometry x="390" y="35" width="120" height="80" as="geometry"/></mxCell></root></mxGraphModel></diagram></mxfile>